# xmcd
#
# Track frame offsets: 
#        150
#        16971
#        32964
#        48351
#        64145
#        78593
#        92375
#        110271
#        123958
#        137329
#        150960
#        167936
#
# Disc length: 2377 seconds
#
# Revision: 0
# Processed by: cddbd v1.5.2PL0 Copyright (c) Steve Scherf et al.
# Submitted via: ExactAudioCopy v1.0b3
#
DISCID=8b09470c
DTITLE=Guylaine Tanguay - Le livre vert_la suite
DYEAR=2015
DGENRE=Country
TTITLE0=Un homme ne doit pas pleurer
TTITLE1=Je suis ton amie
TTITLE2=Ce n'est qu'une question de temps
TTITLE3=Ti-Bidon
TTITLE4=Une vague bleue
TTITLE5=Il est parti
TTITLE6=J'ai dit non
TTITLE7=C'est l'amour
TTITLE8=La danse de la limonade
TTITLE9=Medley
TTITLE10=Aide-moi à passer la nuit
TTITLE11=Bonjour mes amis
EXTD=
EXTT0=
EXTT1=
EXTT2=
EXTT3=
EXTT4=
EXTT5=
EXTT6=
EXTT7=
EXTT8=
EXTT9=
EXTT10=
EXTT11=
PLAYORDER=
